<?xml version="1.0" encoding="UTF-8"?>
<svg width="60px" height="60px" viewBox="0 0 60 60" version="1.1" xmlns="http://www.w3.org/2000/svg" xmlns:xlink="http://www.w3.org/1999/xlink">
    <title>Group 5</title>
    <g id="Page-1" stroke="none" stroke-width="1" fill="none" fill-rule="evenodd">
        <g id="Desktop---Projects-Copy-2" transform="translate(-1330.000000, -387.000000)">
            <g id="Group-5" transform="translate(1330.000000, 387.000000)">
                <circle id="Oval" stroke="#FFC300" cx="30" cy="30" r="29.5"></circle>
                <path d="M36.44,39.964 L36.44,36.1 L30.098,36.1 C30.8446667,35.372 31.5423333,34.679 32.191,34.021 C32.8396667,33.363 33.423,32.7283333 33.941,32.117 C34.459,31.5056667 34.9,30.9036667 35.264,30.311 C35.628,29.7183333 35.9056667,29.1233333 36.097,28.526 C36.2883333,27.9286667 36.384,27.3126667 36.384,26.678 C36.384,25.446 36.0853333,24.3236667 35.488,23.311 C34.8906667,22.2983333 34.088,21.4933333 33.08,20.896 C32.072,20.2986667 30.9566667,20 29.734,20 C28.53,20 27.4216667,20.294 26.409,20.882 C25.3963333,21.47 24.5843333,22.268 23.973,23.276 C23.3616667,24.284 23.056,25.418 23.056,26.678 L23.056,26.678 L26.92,26.678 C26.92,26.1646667 27.0483333,25.6933333 27.305,25.264 C27.5616667,24.8346667 27.9023333,24.494 28.327,24.242 C28.7516667,23.99 29.2206667,23.864 29.734,23.864 C30.2473333,23.864 30.714,23.99 31.134,24.242 C31.554,24.494 31.89,24.8346667 32.142,25.264 C32.394,25.6933333 32.52,26.1646667 32.52,26.678 C32.52,27.1726667 32.2843333,27.7653333 31.813,28.456 C31.3416667,29.1466667 30.7303333,29.8793333 29.979,30.654 C29.2276667,31.4286667 28.418,32.1916667 27.55,32.943 C26.682,33.6943333 25.8466667,34.3803333 25.044,35.001 C24.2413333,35.6216667 23.56,36.128 23,36.52 L23,36.52 L23,39.964 L36.44,39.964 Z" id="2" fill="#FFFFFF" fill-rule="nonzero"></path>
            </g>
        </g>
    </g>
</svg>