<?xml version="1.0" encoding="UTF-8"?>
<svg width="60px" height="60px" viewBox="0 0 60 60" version="1.1" xmlns="http://www.w3.org/2000/svg" xmlns:xlink="http://www.w3.org/1999/xlink">
    <title>Group 5</title>
    <g id="Page-1" stroke="none" stroke-width="1" fill="none" fill-rule="evenodd">
        <g id="Desktop---Projects-Copy-2" transform="translate(-1330.000000, -387.000000)">
            <g id="Group-5" transform="translate(1330.000000, 387.000000)">
                <circle id="Oval" stroke="#FFC300" cx="30" cy="30" r="29.5"></circle>
                <path d="M30.398,40.356 C31.574,40.356 32.6473333,40.069 33.618,39.495 C34.5886667,38.921 35.3633333,38.151 35.942,37.185 C36.5206667,36.219 36.81,35.1526667 36.81,33.986 C36.81,33.398 36.719,32.803 36.537,32.201 C36.355,31.599 36.089,31.0623333 35.739,30.591 C35.389,30.1196667 34.9526667,29.786 34.43,29.59 C35.0273333,29.282 35.4823333,28.7733333 35.795,28.064 C36.1076667,27.3546667 36.264,26.65 36.264,25.95 C36.264,24.8486667 35.9886667,23.8476667 35.438,22.947 C34.8873333,22.0463333 34.157,21.33 33.247,20.798 C32.337,20.266 31.3453333,20 30.272,20 C29.4506667,20 28.6666667,20.154 27.92,20.462 C27.1733333,20.77 26.5083333,21.197 25.925,21.743 C25.3416667,22.289 24.882,22.9213333 24.546,23.64 C24.21,24.3586667 24.042,25.1286667 24.042,25.95 L24.042,25.95 L27.906,25.95 C27.906,25.5673333 28.025,25.2196667 28.263,24.907 C28.501,24.5943333 28.8066667,24.3423333 29.18,24.151 C29.5533333,23.9596667 29.9313333,23.864 30.314,23.864 C30.6966667,23.864 31.0466667,23.9596667 31.364,24.151 C31.6813333,24.3423333 31.9333333,24.5943333 32.12,24.907 C32.3066667,25.2196667 32.4,25.5673333 32.4,25.95 C32.4,26.7153333 32.0873333,27.2916667 31.462,27.679 C30.8366667,28.0663333 29.9826667,28.26 28.9,28.26 L28.9,28.26 L28.9,31.214 C29.712,31.214 30.4213333,31.3166667 31.028,31.522 C31.6346667,31.7273333 32.106,32.0353333 32.442,32.446 C32.778,32.8566667 32.946,33.37 32.946,33.986 C32.946,34.434 32.8293333,34.8493333 32.596,35.232 C32.3626667,35.6146667 32.0523333,35.9203333 31.665,36.149 C31.2776667,36.3776667 30.8553333,36.492 30.398,36.492 C29.922,36.492 29.4926667,36.3776667 29.11,36.149 C28.7273333,35.9203333 28.424,35.6146667 28.2,35.232 C27.976,34.8493333 27.864,34.434 27.864,33.986 L27.864,33.986 L24,33.986 C24,35.162 24.287,36.233 24.861,37.199 C25.435,38.165 26.2073333,38.9326667 27.178,39.502 C28.1486667,40.0713333 29.222,40.356 30.398,40.356 Z" id="3" fill="#FFFFFF" fill-rule="nonzero"></path>
            </g>
        </g>
    </g>
</svg>