<?xml version="1.0" encoding="UTF-8"?>
<svg width="60px" height="60px" viewBox="0 0 60 60" version="1.1" xmlns="http://www.w3.org/2000/svg" xmlns:xlink="http://www.w3.org/1999/xlink">
    <title>Group 5</title>
    <g id="Page-1" stroke="none" stroke-width="1" fill="none" fill-rule="evenodd">
        <g id="Desktop---Projects-Copy-2" transform="translate(-1330.000000, -387.000000)">
            <g id="Group-5" transform="translate(1330.000000, 387.000000)">
                <circle id="Oval" stroke="#FFC300" cx="30" cy="30" r="29.5"></circle>
                <path d="M18.8,18.8 L41.2,18.8 L41.2,35.6 L20.438,35.6 L18.8,37.238 L18.8,18.8 M18.8,16 C17.26,16 16.014,17.26 16.014,18.8 L16,44 L21.6,38.4 L41.2,38.4 C42.74,38.4 44,37.14 44,35.6 L44,18.8 C44,17.26 42.74,16 41.2,16 L18.8,16 Z M21.6,30 L32.8,30 L32.8,32.8 L21.6,32.8 L21.6,30 Z M21.6,25.8 L38.4,25.8 L38.4,28.6 L21.6,28.6 L21.6,25.8 Z M21.6,21.6 L38.4,21.6 L38.4,24.4 L21.6,24.4 L21.6,21.6 Z" id="Shape" fill="#FFFFFF" fill-rule="nonzero"></path>
            </g>
        </g>
    </g>
</svg>