<?xml version="1.0" encoding="UTF-8"?>
<svg width="60px" height="60px" viewBox="0 0 60 60" version="1.1" xmlns="http://www.w3.org/2000/svg" xmlns:xlink="http://www.w3.org/1999/xlink">
    <title>Group 5</title>
    <g id="Page-1" stroke="none" stroke-width="1" fill="none" fill-rule="evenodd">
        <g id="Desktop---Projects-Copy-2" transform="translate(-1330.000000, -387.000000)">
            <g id="Group-5" transform="translate(1330.000000, 387.000000)">
                <path d="M20.6666667,31.1666667 C21.95,31.1666667 23,30.1166667 23,28.8333333 C23,27.55 21.95,26.5 20.6666667,26.5 C19.3833333,26.5 18.3333333,27.55 18.3333333,28.8333333 C18.3333333,30.1166667 19.3833333,31.1666667 20.6666667,31.1666667 Z M21.985,32.45 C21.5533333,32.38 21.1216667,32.3333333 20.6666667,32.3333333 C19.5116667,32.3333333 18.415,32.5783333 17.4233333,33.01 C16.56,33.3833333 16,34.2233333 16,35.1683333 L16,37 L21.25,37 L21.25,35.1216667 C21.25,34.1533333 21.5183333,33.2433333 21.985,32.45 Z M39.3333333,31.1666667 C40.6166667,31.1666667 41.6666667,30.1166667 41.6666667,28.8333333 C41.6666667,27.55 40.6166667,26.5 39.3333333,26.5 C38.05,26.5 37,27.55 37,28.8333333 C37,30.1166667 38.05,31.1666667 39.3333333,31.1666667 Z M44,35.1683333 C44,34.2233333 43.44,33.3833333 42.5766667,33.01 C41.585,32.5783333 40.4883333,32.3333333 39.3333333,32.3333333 C38.8783333,32.3333333 38.4466667,32.38 38.015,32.45 C38.4816667,33.2433333 38.75,34.1533333 38.75,35.1216667 L38.75,37 L44,37 L44,35.1683333 Z M34.9466667,31.925 C33.5816667,31.3183333 31.9016667,30.875 30,30.875 C28.0983333,30.875 26.4183333,31.33 25.0533333,31.925 C23.7933333,32.485 23,33.745 23,35.1216667 L23,37 L37,37 L37,35.1216667 C37,33.745 36.2066667,32.485 34.9466667,31.925 Z M25.415,34.6666667 C25.52,34.3983333 25.5666667,34.2116667 26.4766667,33.8616667 C27.6083333,33.4183333 28.7983333,33.2083333 30,33.2083333 C31.2016667,33.2083333 32.3916667,33.4183333 33.5233333,33.8616667 C34.4216667,34.2116667 34.4683333,34.3983333 34.585,34.6666667 L25.415,34.6666667 Z M30,25.3333333 C30.6416667,25.3333333 31.1666667,25.8583333 31.1666667,26.5 C31.1666667,27.1416667 30.6416667,27.6666667 30,27.6666667 C29.3583333,27.6666667 28.8333333,27.1416667 28.8333333,26.5 C28.8333333,25.8583333 29.3583333,25.3333333 30,25.3333333 M30,23 C28.0633333,23 26.5,24.5633333 26.5,26.5 C26.5,28.4366667 28.0633333,30 30,30 C31.9366667,30 33.5,28.4366667 33.5,26.5 C33.5,24.5633333 31.9366667,23 30,23 L30,23 Z" id="Shape" fill="#FFFFFF" fill-rule="nonzero"></path>
                <circle id="Oval" stroke="#FFC300" cx="30" cy="30" r="29.5"></circle>
            </g>
        </g>
    </g>
</svg>