<?xml version="1.0" encoding="UTF-8"?>
<svg width="60px" height="60px" viewBox="0 0 60 60" version="1.1" xmlns="http://www.w3.org/2000/svg" xmlns:xlink="http://www.w3.org/1999/xlink">
    <title>Group 5</title>
    <g id="Page-1" stroke="none" stroke-width="1" fill="none" fill-rule="evenodd">
        <g id="Desktop---Projects-Copy-2" transform="translate(-1330.000000, -387.000000)">
            <g id="Group-5" transform="translate(1330.000000, 387.000000)">
                <circle id="Oval" stroke="#FFC300" cx="30" cy="30" r="29.5"></circle>
                <path d="M39.3333333,16 L20.6666667,16 C19.1866667,16 18,17.2 18,18.6666667 L18,37.3333333 C18,38.8 19.1866667,40 20.6666667,40 L26,40 L30,44 L34,40 L39.3333333,40 C40.8,40 42,38.8 42,37.3333333 L42,18.6666667 C42,17.2 40.8,16 39.3333333,16 Z M39.3333333,37.3333333 L32.8933333,37.3333333 L32.1066667,38.12 L30,40.2266667 L27.88,38.1066667 L27.1066667,37.3333333 L20.6666667,37.3333333 L20.6666667,18.6666667 L39.3333333,18.6666667 L39.3333333,37.3333333 Z M28.6666667,33.3333333 L31.3333333,33.3333333 L31.3333333,36 L28.6666667,36 L28.6666667,33.3333333 Z M30,22.6666667 C31.4666667,22.6666667 32.6666667,23.8666667 32.6666667,25.3333333 C32.6666667,28 28.6666667,27.6666667 28.6666667,32 L31.3333333,32 C31.3333333,29 35.3333333,28.6666667 35.3333333,25.3333333 C35.3333333,22.3866667 32.9466667,20 30,20 C27.0533333,20 24.6666667,22.3866667 24.6666667,25.3333333 L27.3333333,25.3333333 C27.3333333,23.8666667 28.5333333,22.6666667 30,22.6666667 Z" id="Shape" fill="#FFFFFF" fill-rule="nonzero"></path>
            </g>
        </g>
    </g>
</svg>