<?xml version="1.0" encoding="UTF-8"?>
<svg width="60px" height="60px" viewBox="0 0 60 60" version="1.1" xmlns="http://www.w3.org/2000/svg" xmlns:xlink="http://www.w3.org/1999/xlink">
    <title>Group 5</title>
    <g id="Page-1" stroke="none" stroke-width="1" fill="none" fill-rule="evenodd">
        <g id="Desktop---Projects-Copy-2" transform="translate(-1330.000000, -387.000000)">
            <g id="Group-5" transform="translate(1330.000000, 387.000000)">
                <circle id="Oval" stroke="#FFC300" cx="30" cy="30" r="29.5"></circle>
                <path d="M30.414362,19.9073265 L38.5657448,22.9640951 L38.5657448,29.349345 C38.5657448,30.9660359 38.2532751,32.5555556 37.6962639,34.0228045 L39.7476953,36.0742358 C40.7258612,33.9956332 41.2828724,31.6996604 41.2828724,29.349345 L41.2828724,21.0756914 L30.414362,17 L23.3226589,19.6627851 L25.4284328,21.768559 L30.414362,19.9073265 Z M17.9291606,18.1004367 L16,20.0160116 L19.5458515,23.5618632 L19.5458515,29.349345 C19.5458515,36.2100922 24.1785541,42.6089277 30.414362,44.1712761 C32.7510917,43.5870936 34.8704512,42.3236293 36.5958273,40.6118389 L40.9839884,45 L42.8995633,43.084425 L17.9291606,18.1004367 Z M30.414362,41.3454634 C25.7273168,39.8102863 22.2629791,34.7971858 22.2629791,29.349345 L22.2629791,26.2789908 L34.6802523,38.6962639 C33.4575449,39.8918001 32.0038816,40.8292091 30.414362,41.3454634 Z" id="Shape" fill="#FFFFFF" fill-rule="nonzero"></path>
            </g>
        </g>
    </g>
</svg>