<?xml version="1.0" encoding="UTF-8"?>
<svg width="60px" height="60px" viewBox="0 0 60 60" version="1.1" xmlns="http://www.w3.org/2000/svg" xmlns:xlink="http://www.w3.org/1999/xlink">
    <title>Group 5</title>
    <g id="Page-1" stroke="none" stroke-width="1" fill="none" fill-rule="evenodd">
        <g id="Desktop---Projects-Copy-2" transform="translate(-1330.000000, -387.000000)">
            <g id="Group-5" transform="translate(1330.000000, 387.000000)">
                <path d="M22.9473684,41.0526316 C21.3263158,41.0526316 20,42.3789474 20,44 L40.6315789,44 C40.6315789,42.3789474 39.3052632,41.0526316 37.6842105,41.0526316 L31.7894737,41.0526316 L31.7894737,38.1052632 L36.2105263,38.1052632 C37.8315789,38.1052632 39.1578947,36.7789474 39.1578947,35.1578947 L27.3684211,35.1578947 C24.9221053,35.1578947 22.9473684,33.1831579 22.9473684,30.7368421 C22.9473684,29.1305263 23.8168421,27.7305263 25.1136842,26.9494737 C25.7178947,27.8189474 26.6757895,28.4231579 27.8105263,28.5115789 C28.8421053,28.6 29.8147368,28.2315789 30.5368421,27.5978947 L31.4063158,29.9705263 L32.7915789,29.4694737 L33.2926316,30.8547368 L36.0631579,29.8526316 L35.5621053,28.4673684 L36.9473684,27.9663158 L32.9094737,16.8842105 L31.5242105,17.3852632 L31.0231579,16 L28.2526316,17.0021053 L28.7536842,18.3873684 L27.3684211,18.9031579 L28.1936842,21.1873684 C26.4694737,21.1284211 24.9663158,22.2926316 24.5389474,23.9284211 C21.8715789,25.0484211 20,27.6715789 20,30.7368421 C20,34.8042105 23.3010526,38.1052632 27.3684211,38.1052632 L27.3684211,41.0526316 L22.9473684,41.0526316 Z M31.5831579,19.7136842 L34.1031579,26.64 L32.7178947,27.1410526 L30.1978947,20.2147368 L31.5831579,19.7136842 Z M28.1052632,23.3684211 C28.9157895,23.3684211 29.5789474,24.0315789 29.5789474,24.8421053 C29.5789474,25.6526316 28.9157895,26.3157895 28.1052632,26.3157895 C27.2947368,26.3157895 26.6315789,25.6526316 26.6315789,24.8421053 C26.6315789,24.0315789 27.2947368,23.3684211 28.1052632,23.3684211 Z" id="Shape" fill="#FFFFFF" fill-rule="nonzero"></path>
                <circle id="Oval" stroke="#FFC300" cx="30" cy="30" r="29.5"></circle>
            </g>
        </g>
    </g>
</svg>