<?xml version="1.0" encoding="UTF-8"?>
<svg width="60px" height="60px" viewBox="0 0 60 60" version="1.1" xmlns="http://www.w3.org/2000/svg" xmlns:xlink="http://www.w3.org/1999/xlink">
    <title>Group 5</title>
    <g id="Page-1" stroke="none" stroke-width="1" fill="none" fill-rule="evenodd">
        <g id="Desktop---Projects-Copy-2" transform="translate(-1330.000000, -387.000000)">
            <g id="Group-5" transform="translate(1330.000000, 387.000000)">
                <g id="Group-6" transform="translate(16.000000, 19.000000)" fill="#FFFFFF" fill-rule="nonzero">
                    <path d="M22.6153846,9.69230769 C22.6153846,10.7746154 22.6153846,11.8407692 22.6153846,12.9230769 C24.2307692,12.9230769 26.3307692,12.9230769 28,12.9230769 C28,11.8407692 28,10.7746154 28,9.69230769 C26.3307692,9.69230769 24.2307692,9.69230769 22.6153846,9.69230769 Z" id="Path"></path>
                    <path d="M19.3846154,19.3980769 C20.7944056,20.3538462 22.6300699,21.6192308 24.0839161,22.6153846 C24.6713287,21.9019231 25.2587413,21.175 25.8461538,20.4615385 C24.3923077,19.4653846 22.5566434,18.2 21.1468531,17.2307692 C20.5594406,17.9576923 19.972028,18.6846154 19.3846154,19.3980769 Z" id="Path"></path>
                    <path d="M25.8461538,2.15384615 C25.2587413,1.44038462 24.6713287,0.713461538 24.0839161,0 C22.6300699,0.996153846 20.7944056,2.26153846 19.3846154,3.23076923 C19.972028,3.94423077 20.5594406,4.67115385 21.1468531,5.38461538 C22.5566434,4.41538462 24.3923077,3.16346154 25.8461538,2.15384615 Z" id="Path"></path>
                    <path d="M2.74125874,7.4556213 C1.23356643,7.4556213 0,8.72307692 0,10.2721893 L0,13.0887574 C0,14.6378698 1.23356643,15.9053254 2.74125874,15.9053254 L4.11188811,15.9053254 L4.11188811,21.5384615 L6.85314685,21.5384615 L6.85314685,15.9053254 L8.22377622,15.9053254 L15.0769231,20.1301775 L15.0769231,3.23076923 L8.22377622,7.4556213 L2.74125874,7.4556213 Z M9.63552448,9.86378698 L12.3356643,8.20201183 L12.3356643,15.1589349 L9.63552448,13.4971598 L8.97762238,13.0887574 L8.22377622,13.0887574 L2.74125874,13.0887574 L2.74125874,10.2721893 L8.22377622,10.2721893 L8.97762238,10.2721893 L9.63552448,9.86378698 Z" id="Shape"></path>
                    <path d="M19.3846154,11.3149362 C19.3846154,9.38806485 18.5517949,7.64953432 17.2307692,6.46153846 L17.2307692,16.1538462 C18.5517949,14.980338 19.3846154,13.2418075 19.3846154,11.3149362 Z" id="Path"></path>
                </g>
                <circle id="Oval" stroke="#FFC300" cx="30" cy="30" r="29.5"></circle>
            </g>
        </g>
    </g>
</svg>