<?xml version="1.0" encoding="UTF-8"?>
<svg width="60px" height="60px" viewBox="0 0 60 60" version="1.1" xmlns="http://www.w3.org/2000/svg" xmlns:xlink="http://www.w3.org/1999/xlink">
    <title>Group 5</title>
    <g id="Page-1" stroke="none" stroke-width="1" fill="none" fill-rule="evenodd">
        <g id="Desktop---Projects-Copy-2" transform="translate(-1330.000000, -387.000000)">
            <g id="Group-5" transform="translate(1330.000000, 387.000000)">
                <path d="M26.0815217,32.5679348 C22.711413,32.5679348 16,34.2484472 16,37.5951087 L16,40.1086957 L36.1630435,40.1086957 L36.1630435,37.5951087 C36.1630435,34.2484472 29.4516304,32.5679348 26.0815217,32.5679348 Z M19.3701087,37.2360248 C20.5798913,36.4029503 23.5035326,35.4406056 26.0815217,35.4406056 C28.6595109,35.4406056 31.5831522,36.4029503 32.7929348,37.2360248 L19.3701087,37.2360248 Z M26.0815217,30.0543478 C28.8611413,30.0543478 31.1222826,27.7993012 31.1222826,25.0271739 C31.1222826,22.2550466 28.8611413,20 26.0815217,20 C23.3019022,20 21.0407609,22.2550466 21.0407609,25.0271739 C21.0407609,27.7993012 23.3019022,30.0543478 26.0815217,30.0543478 Z M26.0815217,22.8726708 C27.2769022,22.8726708 28.2418478,23.8350155 28.2418478,25.0271739 C28.2418478,26.2193323 27.2769022,27.181677 26.0815217,27.181677 C24.8861413,27.181677 23.9211957,26.2193323 23.9211957,25.0271739 C23.9211957,23.8350155 24.8861413,22.8726708 26.0815217,22.8726708 Z M36.2206522,32.6541149 C37.8913043,33.8606366 39.0434783,35.4693323 39.0434783,37.5951087 L39.0434783,40.1086957 L44.8043478,40.1086957 L44.8043478,37.5951087 C44.8043478,34.6937112 39.763587,33.0419255 36.2206522,32.6541149 L36.2206522,32.6541149 Z M34.7228261,30.0543478 C37.5024457,30.0543478 39.763587,27.7993012 39.763587,25.0271739 C39.763587,22.2550466 37.5024457,20 34.7228261,20 C33.9451087,20 33.225,20.1867236 32.5625,20.5027174 C33.469837,21.7810559 34.0027174,23.3466615 34.0027174,25.0271739 C34.0027174,26.7076863 33.469837,28.2732919 32.5625,29.5516304 C33.225,29.8676242 33.9451087,30.0543478 34.7228261,30.0543478 Z" id="Shape" fill="#FFFFFF" fill-rule="nonzero"></path>
                <circle id="Oval" stroke="#FFC300" cx="30" cy="30" r="29.5"></circle>
            </g>
        </g>
    </g>
</svg>